<svg xmlns="http://www.w3.org/2000/svg" viewBox="0 0 789 1200" font-family="sans-serif">
<defs><linearGradient id="bgg" x1="0" y1="0" x2="0" y2="1"><stop offset="0" stop-color="#141826"/><stop offset="1" stop-color="#0A1628"/></linearGradient></defs>
<rect width="789" height="1200" fill="url(#bgg)"/>
<rect x="20" y="20" width="749" height="1160" fill="none" stroke="#B22234" stroke-width="8"/>
<text x="394.5" y="96" font-family="Georgia,serif" font-weight="bold" font-size="60" fill="rgba(250,248,243,0.92)" text-anchor="middle">Celebrate</text>
<clipPath id="c1_40_508"><rect x="40.0" y="508.0" width="232.3" height="333.0" rx="8"/></clipPath>
<linearGradient id="gc1_40_508" x1="0" y1="0" x2="0" y2="1"><stop offset="0" stop-color="#ecd2bc"/><stop offset="1" stop-color="#a5563a"/></linearGradient>
<rect x="40.0" y="508.0" width="232.3" height="333.0" rx="8" fill="#0a0a0a"/>
<g clip-path="url(#c1_40_508)">
<g transform="translate(156.2,674.5) rotate(0)">
<rect x="-116.2" y="-154.9" width="232.3" height="309.8" fill="url(#gc1_40_508)"/>
<circle cx="0.0" cy="-49.6" r="39.5" fill="rgba(0,0,0,0.28)"/>
<path d="M -79.0 139.4 A 79.0 79.0 0 0 1 79.0 139.4 Z" fill="rgba(0,0,0,0.28)"/>
<text x="0" y="-31.0" font-family="sans-serif" font-weight="bold" font-size="42" fill="rgba(255,255,255,0.92)" text-anchor="middle">2</text>
</g></g>
<rect x="40.0" y="508.0" width="232.3" height="333.0" rx="8" fill="none" stroke="rgba(255,255,255,0.4)" stroke-width="1"/>
<clipPath id="c2_278_508"><rect x="278.3" y="508.0" width="232.3" height="333.0" rx="8"/></clipPath>
<linearGradient id="gc2_278_508" x1="0" y1="0" x2="0" y2="1"><stop offset="0" stop-color="#cfe8d4"/><stop offset="1" stop-color="#5a8f6a"/></linearGradient>
<rect x="278.3" y="508.0" width="232.3" height="333.0" rx="8" fill="#0a0a0a"/>
<g clip-path="url(#c2_278_508)">
<g transform="translate(394.5,674.5) rotate(0)">
<rect x="-116.2" y="-154.9" width="232.3" height="309.8" fill="url(#gc2_278_508)"/>
<circle cx="0.0" cy="-49.6" r="39.5" fill="rgba(0,0,0,0.28)"/>
<path d="M -79.0 139.4 A 79.0 79.0 0 0 1 79.0 139.4 Z" fill="rgba(0,0,0,0.28)"/>
<text x="0" y="-31.0" font-family="sans-serif" font-weight="bold" font-size="42" fill="rgba(255,255,255,0.92)" text-anchor="middle">3</text>
</g></g>
<rect x="278.3" y="508.0" width="232.3" height="333.0" rx="8" fill="none" stroke="rgba(255,255,255,0.4)" stroke-width="1"/>
<clipPath id="c3_516_508"><rect x="516.7" y="508.0" width="232.3" height="333.0" rx="8"/></clipPath>
<linearGradient id="gc3_516_508" x1="0" y1="0" x2="0" y2="1"><stop offset="0" stop-color="#ddd0ec"/><stop offset="1" stop-color="#7a5aa0"/></linearGradient>
<rect x="516.7" y="508.0" width="232.3" height="333.0" rx="8" fill="#0a0a0a"/>
<g clip-path="url(#c3_516_508)">
<g transform="translate(632.8,674.5) rotate(0)">
<rect x="-116.2" y="-154.9" width="232.3" height="309.8" fill="url(#gc3_516_508)"/>
<circle cx="0.0" cy="-49.6" r="39.5" fill="rgba(0,0,0,0.28)"/>
<path d="M -79.0 139.4 A 79.0 79.0 0 0 1 79.0 139.4 Z" fill="rgba(0,0,0,0.28)"/>
<text x="0" y="-31.0" font-family="sans-serif" font-weight="bold" font-size="42" fill="rgba(255,255,255,0.92)" text-anchor="middle">4</text>
</g></g>
<rect x="516.7" y="508.0" width="232.3" height="333.0" rx="8" fill="none" stroke="rgba(255,255,255,0.4)" stroke-width="1"/>
<clipPath id="c4_40_847"><rect x="40.0" y="847.0" width="232.3" height="333.0" rx="8"/></clipPath>
<linearGradient id="gc4_40_847" x1="0" y1="0" x2="0" y2="1"><stop offset="0" stop-color="#ece2bc"/><stop offset="1" stop-color="#a08a3a"/></linearGradient>
<rect x="40.0" y="847.0" width="232.3" height="333.0" rx="8" fill="#0a0a0a"/>
<g clip-path="url(#c4_40_847)">
<g transform="translate(156.2,1013.5) rotate(0)">
<rect x="-116.2" y="-154.9" width="232.3" height="309.8" fill="url(#gc4_40_847)"/>
<circle cx="0.0" cy="-49.6" r="39.5" fill="rgba(0,0,0,0.28)"/>
<path d="M -79.0 139.4 A 79.0 79.0 0 0 1 79.0 139.4 Z" fill="rgba(0,0,0,0.28)"/>
<text x="0" y="-31.0" font-family="sans-serif" font-weight="bold" font-size="42" fill="rgba(255,255,255,0.92)" text-anchor="middle">5</text>
</g></g>
<rect x="40.0" y="847.0" width="232.3" height="333.0" rx="8" fill="none" stroke="rgba(255,255,255,0.4)" stroke-width="1"/>
<clipPath id="c5_278_847"><rect x="278.3" y="847.0" width="232.3" height="333.0" rx="8"/></clipPath>
<linearGradient id="gc5_278_847" x1="0" y1="0" x2="0" y2="1"><stop offset="0" stop-color="#ecbcd0"/><stop offset="1" stop-color="#9a3a5a"/></linearGradient>
<rect x="278.3" y="847.0" width="232.3" height="333.0" rx="8" fill="#0a0a0a"/>
<g clip-path="url(#c5_278_847)">
<g transform="translate(394.5,1013.5) rotate(0)">
<rect x="-116.2" y="-154.9" width="232.3" height="309.8" fill="url(#gc5_278_847)"/>
<circle cx="0.0" cy="-49.6" r="39.5" fill="rgba(0,0,0,0.28)"/>
<path d="M -79.0 139.4 A 79.0 79.0 0 0 1 79.0 139.4 Z" fill="rgba(0,0,0,0.28)"/>
<text x="0" y="-31.0" font-family="sans-serif" font-weight="bold" font-size="42" fill="rgba(255,255,255,0.92)" text-anchor="middle">6</text>
</g></g>
<rect x="278.3" y="847.0" width="232.3" height="333.0" rx="8" fill="none" stroke="rgba(255,255,255,0.4)" stroke-width="1"/>
<clipPath id="c6_516_847"><rect x="516.7" y="847.0" width="232.3" height="333.0" rx="8"/></clipPath>
<linearGradient id="gc6_516_847" x1="0" y1="0" x2="0" y2="1"><stop offset="0" stop-color="#bcd4ec"/><stop offset="1" stop-color="#3a6ea5"/></linearGradient>
<rect x="516.7" y="847.0" width="232.3" height="333.0" rx="8" fill="#0a0a0a"/>
<g clip-path="url(#c6_516_847)">
<g transform="translate(632.8,1013.5) rotate(0)">
<rect x="-116.2" y="-154.9" width="232.3" height="309.8" fill="url(#gc6_516_847)"/>
<circle cx="0.0" cy="-49.6" r="39.5" fill="rgba(0,0,0,0.28)"/>
<path d="M -79.0 139.4 A 79.0 79.0 0 0 1 79.0 139.4 Z" fill="rgba(0,0,0,0.28)"/>
<text x="0" y="-31.0" font-family="sans-serif" font-weight="bold" font-size="42" fill="rgba(255,255,255,0.92)" text-anchor="middle">7</text>
</g></g>
<rect x="516.7" y="847.0" width="232.3" height="333.0" rx="8" fill="none" stroke="rgba(255,255,255,0.4)" stroke-width="1"/>
<clipPath id="c0_40_140"><rect x="40.0" y="140.0" width="709.0" height="360.0" rx="8"/></clipPath>
<linearGradient id="gc0_40_140" x1="0" y1="0" x2="0" y2="1"><stop offset="0" stop-color="#bcd4ec"/><stop offset="1" stop-color="#3a6ea5"/></linearGradient>
<rect x="40.0" y="140.0" width="709.0" height="360.0" rx="8" fill="#0a0a0a"/>
<g clip-path="url(#c0_40_140)">
<g transform="translate(394.5,320.0) rotate(0)">
<rect x="-270.0" y="-180.0" width="540.0" height="360.0" fill="url(#gc0_40_140)"/>
<circle cx="0.0" cy="-57.6" r="91.8" fill="rgba(0,0,0,0.28)"/>
<path d="M -183.6 162.0 A 183.6 183.6 0 0 1 183.6 162.0 Z" fill="rgba(0,0,0,0.28)"/>
<text x="0" y="-36.0" font-family="sans-serif" font-weight="bold" font-size="97" fill="rgba(255,255,255,0.92)" text-anchor="middle">1</text>
</g></g>
<rect x="40.0" y="140.0" width="709.0" height="360.0" rx="8" fill="none" stroke="rgba(255,255,255,0.4)" stroke-width="1"/>
<rect x="40.0" y="140.0" width="709.0" height="360.0" rx="14" fill="none" stroke="#C9A84C" stroke-width="3"/>
<rect x="0" y="1154" width="789" height="46" fill="rgba(0,0,0,0.55)"/>
<text x="394.5" y="1174" font-size="17" font-weight="bold" fill="#E8C97A" text-anchor="middle">Landscape hero · 6 photos (UNCHANGED)</text>
<text x="394.5" y="1191" font-size="12" fill="rgba(250,248,243,0.8)" text-anchor="middle">LANDSCAPE hero (a=1.50) — UNCHANGED: full-width 709x360 hero + standard grid.</text>
</svg>