<svg xmlns="http://www.w3.org/2000/svg" viewBox="0 0 789 1200" font-family="sans-serif">
<defs><linearGradient id="bgg" x1="0" y1="0" x2="0" y2="1"><stop offset="0" stop-color="#141826"/><stop offset="1" stop-color="#0A1628"/></linearGradient></defs>
<rect width="789" height="1200" fill="url(#bgg)"/>
<rect x="20" y="20" width="749" height="1160" fill="none" stroke="#B22234" stroke-width="8"/>
<text x="394.5" y="96" font-family="Georgia,serif" font-weight="bold" font-size="60" fill="rgba(250,248,243,0.92)" text-anchor="middle">Celebrate</text>
<clipPath id="c1_436_281"><rect x="436.0" y="281.0" width="153.5" height="169.3" rx="8"/></clipPath>
<linearGradient id="gc1_436_281" x1="0" y1="0" x2="0" y2="1"><stop offset="0" stop-color="#ecd2bc"/><stop offset="1" stop-color="#a5563a"/></linearGradient>
<rect x="436.0" y="281.0" width="153.5" height="169.3" rx="8" fill="#0a0a0a"/>
<g clip-path="url(#c1_436_281)">
<g transform="translate(512.8,365.7) rotate(0)">
<rect x="-63.5" y="-84.7" width="127.0" height="169.3" fill="url(#gc1_436_281)"/>
<circle cx="0.0" cy="-27.1" r="21.6" fill="rgba(0,0,0,0.28)"/>
<path d="M -43.2 76.2 A 43.2 43.2 0 0 1 43.2 76.2 Z" fill="rgba(0,0,0,0.28)"/>
<text x="0" y="-16.9" font-family="sans-serif" font-weight="bold" font-size="23" fill="rgba(255,255,255,0.92)" text-anchor="middle">2</text>
</g></g>
<rect x="436.0" y="281.0" width="153.5" height="169.3" rx="8" fill="none" stroke="rgba(255,255,255,0.4)" stroke-width="1"/>
<clipPath id="c2_595_281"><rect x="595.5" y="281.0" width="153.5" height="169.3" rx="8"/></clipPath>
<linearGradient id="gc2_595_281" x1="0" y1="0" x2="0" y2="1"><stop offset="0" stop-color="#cfe8d4"/><stop offset="1" stop-color="#5a8f6a"/></linearGradient>
<rect x="595.5" y="281.0" width="153.5" height="169.3" rx="8" fill="#0a0a0a"/>
<g clip-path="url(#c2_595_281)">
<g transform="translate(672.2,365.7) rotate(0)">
<rect x="-63.5" y="-84.7" width="127.0" height="169.3" fill="url(#gc2_595_281)"/>
<circle cx="0.0" cy="-27.1" r="21.6" fill="rgba(0,0,0,0.28)"/>
<path d="M -43.2 76.2 A 43.2 43.2 0 0 1 43.2 76.2 Z" fill="rgba(0,0,0,0.28)"/>
<text x="0" y="-16.9" font-family="sans-serif" font-weight="bold" font-size="23" fill="rgba(255,255,255,0.92)" text-anchor="middle">3</text>
</g></g>
<rect x="595.5" y="281.0" width="153.5" height="169.3" rx="8" fill="none" stroke="rgba(255,255,255,0.4)" stroke-width="1"/>
<clipPath id="c3_436_456"><rect x="436.0" y="456.3" width="153.5" height="169.3" rx="8"/></clipPath>
<linearGradient id="gc3_436_456" x1="0" y1="0" x2="0" y2="1"><stop offset="0" stop-color="#ddd0ec"/><stop offset="1" stop-color="#7a5aa0"/></linearGradient>
<rect x="436.0" y="456.3" width="153.5" height="169.3" rx="8" fill="#0a0a0a"/>
<g clip-path="url(#c3_436_456)">
<g transform="translate(512.8,541.0) rotate(0)">
<rect x="-63.5" y="-84.7" width="127.0" height="169.3" fill="url(#gc3_436_456)"/>
<circle cx="0.0" cy="-27.1" r="21.6" fill="rgba(0,0,0,0.28)"/>
<path d="M -43.2 76.2 A 43.2 43.2 0 0 1 43.2 76.2 Z" fill="rgba(0,0,0,0.28)"/>
<text x="0" y="-16.9" font-family="sans-serif" font-weight="bold" font-size="23" fill="rgba(255,255,255,0.92)" text-anchor="middle">4</text>
</g></g>
<rect x="436.0" y="456.3" width="153.5" height="169.3" rx="8" fill="none" stroke="rgba(255,255,255,0.4)" stroke-width="1"/>
<clipPath id="c4_595_456"><rect x="595.5" y="456.3" width="153.5" height="169.3" rx="8"/></clipPath>
<linearGradient id="gc4_595_456" x1="0" y1="0" x2="0" y2="1"><stop offset="0" stop-color="#ece2bc"/><stop offset="1" stop-color="#a08a3a"/></linearGradient>
<rect x="595.5" y="456.3" width="153.5" height="169.3" rx="8" fill="#0a0a0a"/>
<g clip-path="url(#c4_595_456)">
<g transform="translate(672.2,541.0) rotate(0)">
<rect x="-63.5" y="-84.7" width="127.0" height="169.3" fill="url(#gc4_595_456)"/>
<circle cx="0.0" cy="-27.1" r="21.6" fill="rgba(0,0,0,0.28)"/>
<path d="M -43.2 76.2 A 43.2 43.2 0 0 1 43.2 76.2 Z" fill="rgba(0,0,0,0.28)"/>
<text x="0" y="-16.9" font-family="sans-serif" font-weight="bold" font-size="23" fill="rgba(255,255,255,0.92)" text-anchor="middle">5</text>
</g></g>
<rect x="595.5" y="456.3" width="153.5" height="169.3" rx="8" fill="none" stroke="rgba(255,255,255,0.4)" stroke-width="1"/>
<clipPath id="c5_436_631"><rect x="436.0" y="631.7" width="153.5" height="169.3" rx="8"/></clipPath>
<linearGradient id="gc5_436_631" x1="0" y1="0" x2="0" y2="1"><stop offset="0" stop-color="#ecbcd0"/><stop offset="1" stop-color="#9a3a5a"/></linearGradient>
<rect x="436.0" y="631.7" width="153.5" height="169.3" rx="8" fill="#0a0a0a"/>
<g clip-path="url(#c5_436_631)">
<g transform="translate(512.8,716.3) rotate(0)">
<rect x="-63.5" y="-84.7" width="127.0" height="169.3" fill="url(#gc5_436_631)"/>
<circle cx="0.0" cy="-27.1" r="21.6" fill="rgba(0,0,0,0.28)"/>
<path d="M -43.2 76.2 A 43.2 43.2 0 0 1 43.2 76.2 Z" fill="rgba(0,0,0,0.28)"/>
<text x="0" y="-16.9" font-family="sans-serif" font-weight="bold" font-size="23" fill="rgba(255,255,255,0.92)" text-anchor="middle">6</text>
</g></g>
<rect x="436.0" y="631.7" width="153.5" height="169.3" rx="8" fill="none" stroke="rgba(255,255,255,0.4)" stroke-width="1"/>
<clipPath id="c6_595_631"><rect x="595.5" y="631.7" width="153.5" height="169.3" rx="8"/></clipPath>
<linearGradient id="gc6_595_631" x1="0" y1="0" x2="0" y2="1"><stop offset="0" stop-color="#bcd4ec"/><stop offset="1" stop-color="#3a6ea5"/></linearGradient>
<rect x="595.5" y="631.7" width="153.5" height="169.3" rx="8" fill="#0a0a0a"/>
<g clip-path="url(#c6_595_631)">
<g transform="translate(672.2,716.3) rotate(0)">
<rect x="-63.5" y="-84.7" width="127.0" height="169.3" fill="url(#gc6_595_631)"/>
<circle cx="0.0" cy="-27.1" r="21.6" fill="rgba(0,0,0,0.28)"/>
<path d="M -43.2 76.2 A 43.2 43.2 0 0 1 43.2 76.2 Z" fill="rgba(0,0,0,0.28)"/>
<text x="0" y="-16.9" font-family="sans-serif" font-weight="bold" font-size="23" fill="rgba(255,255,255,0.92)" text-anchor="middle">7</text>
</g></g>
<rect x="595.5" y="631.7" width="153.5" height="169.3" rx="8" fill="none" stroke="rgba(255,255,255,0.4)" stroke-width="1"/>
<clipPath id="c7_40_807"><rect x="40.5" y="807.0" width="232.0" height="232.0" rx="8"/></clipPath>
<linearGradient id="gc7_40_807" x1="0" y1="0" x2="0" y2="1"><stop offset="0" stop-color="#ecd2bc"/><stop offset="1" stop-color="#a5563a"/></linearGradient>
<rect x="40.5" y="807.0" width="232.0" height="232.0" rx="8" fill="#0a0a0a"/>
<g clip-path="url(#c7_40_807)">
<g transform="translate(156.5,923.0) rotate(0)">
<rect x="-87.0" y="-116.0" width="174.0" height="232.0" fill="url(#gc7_40_807)"/>
<circle cx="0.0" cy="-37.1" r="29.6" fill="rgba(0,0,0,0.28)"/>
<path d="M -59.2 104.4 A 59.2 59.2 0 0 1 59.2 104.4 Z" fill="rgba(0,0,0,0.28)"/>
<text x="0" y="-23.2" font-family="sans-serif" font-weight="bold" font-size="31" fill="rgba(255,255,255,0.92)" text-anchor="middle">8</text>
</g></g>
<rect x="40.5" y="807.0" width="232.0" height="232.0" rx="8" fill="none" stroke="rgba(255,255,255,0.4)" stroke-width="1"/>
<clipPath id="c8_278_807"><rect x="278.5" y="807.0" width="232.0" height="232.0" rx="8"/></clipPath>
<linearGradient id="gc8_278_807" x1="0" y1="0" x2="0" y2="1"><stop offset="0" stop-color="#cfe8d4"/><stop offset="1" stop-color="#5a8f6a"/></linearGradient>
<rect x="278.5" y="807.0" width="232.0" height="232.0" rx="8" fill="#0a0a0a"/>
<g clip-path="url(#c8_278_807)">
<g transform="translate(394.5,923.0) rotate(0)">
<rect x="-87.0" y="-116.0" width="174.0" height="232.0" fill="url(#gc8_278_807)"/>
<circle cx="0.0" cy="-37.1" r="29.6" fill="rgba(0,0,0,0.28)"/>
<path d="M -59.2 104.4 A 59.2 59.2 0 0 1 59.2 104.4 Z" fill="rgba(0,0,0,0.28)"/>
<text x="0" y="-23.2" font-family="sans-serif" font-weight="bold" font-size="31" fill="rgba(255,255,255,0.92)" text-anchor="middle">9</text>
</g></g>
<rect x="278.5" y="807.0" width="232.0" height="232.0" rx="8" fill="none" stroke="rgba(255,255,255,0.4)" stroke-width="1"/>
<clipPath id="c9_516_807"><rect x="516.5" y="807.0" width="232.0" height="232.0" rx="8"/></clipPath>
<linearGradient id="gc9_516_807" x1="0" y1="0" x2="0" y2="1"><stop offset="0" stop-color="#ddd0ec"/><stop offset="1" stop-color="#7a5aa0"/></linearGradient>
<rect x="516.5" y="807.0" width="232.0" height="232.0" rx="8" fill="#0a0a0a"/>
<g clip-path="url(#c9_516_807)">
<g transform="translate(632.5,923.0) rotate(0)">
<rect x="-87.0" y="-116.0" width="174.0" height="232.0" fill="url(#gc9_516_807)"/>
<circle cx="0.0" cy="-37.1" r="29.6" fill="rgba(0,0,0,0.28)"/>
<path d="M -59.2 104.4 A 59.2 59.2 0 0 1 59.2 104.4 Z" fill="rgba(0,0,0,0.28)"/>
<text x="0" y="-23.2" font-family="sans-serif" font-weight="bold" font-size="31" fill="rgba(255,255,255,0.92)" text-anchor="middle">10</text>
</g></g>
<rect x="516.5" y="807.0" width="232.0" height="232.0" rx="8" fill="none" stroke="rgba(255,255,255,0.4)" stroke-width="1"/>
<clipPath id="c0_40_281"><rect x="40.0" y="281.0" width="390.0" height="520.0" rx="8"/></clipPath>
<linearGradient id="gc0_40_281" x1="0" y1="0" x2="0" y2="1"><stop offset="0" stop-color="#bcd4ec"/><stop offset="1" stop-color="#3a6ea5"/></linearGradient>
<rect x="40.0" y="281.0" width="390.0" height="520.0" rx="8" fill="#0a0a0a"/>
<g clip-path="url(#c0_40_281)">
<g transform="translate(235.0,541.0) rotate(0)">
<rect x="-195.0" y="-260.0" width="390.0" height="520.0" fill="url(#gc0_40_281)"/>
<circle cx="0.0" cy="-83.2" r="66.3" fill="rgba(0,0,0,0.28)"/>
<path d="M -132.6 234.0 A 132.6 132.6 0 0 1 132.6 234.0 Z" fill="rgba(0,0,0,0.28)"/>
<text x="0" y="-52.0" font-family="sans-serif" font-weight="bold" font-size="70" fill="rgba(255,255,255,0.92)" text-anchor="middle">1</text>
</g></g>
<rect x="40.0" y="281.0" width="390.0" height="520.0" rx="8" fill="none" stroke="rgba(255,255,255,0.4)" stroke-width="1"/>
<rect x="40.0" y="281.0" width="390.0" height="520.0" rx="14" fill="none" stroke="#C9A84C" stroke-width="3"/>
<rect x="0" y="1154" width="789" height="46" fill="rgba(0,0,0,0.55)"/>
<text x="394.5" y="1174" font-size="17" font-weight="bold" fill="#E8C97A" text-anchor="middle">Portrait hero · 9 photos</text>
<text x="394.5" y="1191" font-size="12" fill="rgba(250,248,243,0.8)" text-anchor="middle">PORTRAIT hero (a=0.75) -&gt; 390x520 cell, 2x3 side (6), 3x1 below; centered.</text>
</svg>